<?xml version="1.0" encoding="UTF-8"?>
<!DOCTYPE svg PUBLIC "-//W3C//DTD SVG 1.1//EN" "http://www.w3.org/Graphics/SVG/1.1/DTD/svg11.dtd">
<!-- Creator: CorelDRAW -->
<svg xmlns="http://www.w3.org/2000/svg" xml:space="preserve" version="1.1" style="shape-rendering:geometricPrecision; text-rendering:geometricPrecision; image-rendering:optimizeQuality; fill-rule:evenodd; clip-rule:evenodd"
viewBox="0 0 10160 10160"
 xmlns:xlink="http://www.w3.org/1999/xlink"
 xmlns:xodm="http://www.corel.com/coreldraw/odm/2003">
 <defs>
  <style type="text/css">
   <![CDATA[
    .fil22 {fill:#0B4B63}
    .fil24 {fill:#0C3C52}
    .fil17 {fill:#0C445B}
    .fil25 {fill:#123D52}
    .fil14 {fill:#12445B}
    .fil15 {fill:#124B5C}
    .fil8 {fill:#124E61}
    .fil18 {fill:#134354}
    .fil9 {fill:#144B63}
    .fil5 {fill:#154F61}
    .fil3 {fill:#155163}
    .fil20 {fill:#164A5D}
    .fil1 {fill:#174D5F}
    .fil2 {fill:#174D5F}
    .fil4 {fill:#174F62}
    .fil19 {fill:#1A455A}
    .fil16 {fill:#1A4B61}
    .fil13 {fill:#65B2C5}
    .fil10 {fill:#67ACC9}
    .fil26 {fill:#6BACBD}
    .fil27 {fill:#6BB3CA}
    .fil21 {fill:#6CB3C5}
    .fil7 {fill:#6EB5C9}
    .fil12 {fill:#71B5C8}
    .fil6 {fill:#72B2C5}
    .fil11 {fill:#72B5C6}
    .fil23 {fill:#74B7C8}
    .fil0 {fill:#FCFDFE}
   ]]>
  </style>
 </defs>
 <g id="Capa_x0020_1">
  <metadata id="CorelCorpID_0Corel-Layer"/>
  <path class="fil0" d="M5020.19 8311.89c48.68,-7.75 274.2,-4.11 353.13,-4.57 59.91,-0.35 55.41,20.74 24.23,55.01 -25.88,28.47 -46.84,20.74 -95.91,20.66l-234.93 -1.43c-16.3,-4.83 -55.28,-47.58 -46.52,-69.67zm-103.21 -168.43l591.1 2.51c6.53,77.65 -25.28,71.45 -87.63,71.11 -104.92,-0.58 -417.9,7.24 -480.13,-4.23l-23.34 -69.39zm568.78 -102.71l-591.4 -0.99 -1.28 -73.17c56.63,-0.86 628.59,-10.96 646.14,8.23 5.42,12.85 10.41,42.93 2.52,56.89 -8.78,15.52 -34.61,8.99 -55.98,9.04zm9.89 -259.73c14.01,20.03 23.52,40.25 24.69,69.57l-608.88 0.57c-0.65,-9.7 11.26,-52.94 15.81,-60.69 11,-18.73 17.35,-11.64 71.43,-11.07 98.38,1.07 452.78,-8.48 496.95,1.62zm-506.61 -102.64c5.56,-94.29 104.39,-70.48 170.04,-70.62 48.7,-0.11 208.1,-7.86 240.17,1.82 11.24,10.43 3.06,1.61 10.58,13.92 4.23,6.93 5.25,10.13 8.2,15.37 10.2,18.12 10.98,12.88 17.56,36.5l-446.55 3.01zm181.18 950.53l-189.67 -148.47c-145.07,-124.49 -267.11,-271.49 -291.22,-475.36 -31.11,-263.04 67.05,-523.59 252.15,-698.78 104.64,-99.03 81.45,-54.81 146.72,-2.83 14.65,11.67 57.69,44.9 66.4,60.02l-66.53 53.66c-21.07,22.79 -36.3,43.43 -58.98,65.92l-55.83 62.71c-91.4,110.45 -172.04,293.85 -157.87,459.39 15.23,177.82 67.15,278.94 150.08,395.47 36.96,51.94 190.93,201.58 204.75,228.27zm1539.1 -776.28c-270.1,0.23 -524.09,-70.57 -701.11,-221.61 -115.35,-98.44 -247.74,-251.94 -317.16,-382.66 23.3,27.88 161.2,120.36 201.92,147.28 415.62,274.83 954.47,315.64 1415.26,103.32 206.09,-94.96 189.67,-104.51 342.16,-192.28 38.64,-22.24 71.99,-50.07 109.59,-67.59 -43.84,71.59 -185.9,206.44 -251.69,264.12 -54.31,47.61 -112.69,104.36 -171.46,143.24 -161.62,106.93 -382.42,205.98 -627.51,206.18zm-4020.87 -613.94l223.03 139c76.1,47.6 154.95,90.65 240.19,128.01 364.31,159.64 805.85,173.82 1176.64,6.74 158.09,-71.24 188.37,-95.13 317.52,-187.07 19.43,-13.83 86.11,-63.3 102.42,-68.3 -20.51,36.83 -54.38,80.18 -79.13,115.21l-86.36 109.75c-41.22,55.49 -143.44,137.41 -212.97,185.09 -276.74,189.79 -660.23,238.59 -985.48,123.07 -115.83,-41.14 -315.8,-137.37 -396.14,-227.67 -32.25,-36.27 -71.37,-63.97 -106.66,-101.31l-99.95 -107.95c-30.91,-34.57 -68.44,-67.48 -93.11,-114.57zm2748.09 -555.9c-0.1,25.78 -2.56,22.59 -18.61,36.48 -60.03,51.93 -25.84,69.06 -110.35,68.75l-106.92 -0.2c-109.3,-0.25 -105.88,14.35 -140.31,-32.47 -17.32,-23.55 -43.71,-33.72 -46.24,-71.95l422.43 -0.61zm155.29 -258.86c-3.07,26.19 -24.08,62.21 -38.89,85.83 -21.35,34.06 -25.31,25.7 -90.93,25.78 -81.15,0.09 -162.36,0.53 -243.53,0.78 -81.18,0.27 -162.37,0.1 -243.54,0.4 -55.69,0.2 -65.85,10.43 -91.38,-32.22 -11,-18.39 -35.89,-60.44 -39.05,-82.01l747.32 1.44zm-2708.74 -299.35c126.04,-27.22 136.75,161.48 35.51,181.4 -120.98,23.79 -157.5,-155.04 -35.51,-181.4zm4630.43 3.6c116.98,-35.88 152.2,141.5 46.68,173.74 -74.2,22.66 -139.38,-47.03 -98.87,-134.21 14.28,-30.72 18.57,-29.22 52.19,-39.53zm-2726.48 69.22c-27.1,-111.33 19.9,-91.44 104.76,-91.18l487.04 0.63c41.83,0.13 238.75,-10.62 257.21,7.15 12.31,9.92 18.54,53.52 10.8,73.27 -9.18,23.42 -35.32,13.83 -66.05,13.86 -250.27,0.31 -553.97,5.97 -793.76,-3.73zm96.8 -315.19c-5.51,-17.52 15.8,-41.64 35.52,-71.05 23.61,-35.19 29.14,-30.23 79.19,-30.25l487.21 -0.69c12.37,9.97 28.1,34.93 38.28,48.49 12.22,16.3 27.58,29.06 25.92,55 -43.87,8.64 -566.78,1.23 -666.12,-1.5zm143.04 -247.13c4.13,-7.93 31.58,-39.95 38.57,-46.08 98.98,-86.86 57.68,-90.31 153.03,-89.83 28.92,0.14 51.9,-6.64 71.26,11.12 22.42,20.56 109.57,106.78 111.35,128.99 -48.75,0.2 -346.78,8.02 -374.21,-4.2zm-822.88 -411.83c239.31,-58.76 336.74,287.55 91.79,368.67 -227.77,75.44 -341.05,-307.47 -91.79,-368.67zm1924.84 0.59c242.72,-62.13 330.86,302.01 96.37,366.62 -250.41,68.97 -342.59,-303.59 -96.37,-366.62zm-1436.06 951.73c0,161.57 45.08,281.98 109.01,405.14 30.1,58 65.5,106.81 99.57,149.73 12.39,15.61 14.29,19.85 26.37,33.01l88.48 101.62c17.92,15.8 16.13,11.95 30.65,28.46l93.65 96.42c23.7,21.45 40.4,32.8 66.88,57.81l132.56 116.82c12.67,11.26 16.15,11.01 32.93,26.6l100.29 89.87c25.81,25.93 36.34,45.62 59.79,71.02 205.7,222.69 305.45,598.26 107.1,925.89l-111.3 138.36 -136.73 112.68c-44.19,33.27 -42.46,51.18 -135.33,114.5 51.08,-84.05 176.34,-152.48 288.89,-382.18 109.53,-223.53 86.97,-451.95 -43.76,-664.61 -23.48,-38.19 -49.08,-66.44 -73.91,-98.31 -49.14,-63.07 -130.33,-126.04 -173.8,-170.44 -15.77,-16.11 -25.91,-21.07 -45.12,-38.05 -88.7,-78.36 -245.94,-195.12 -327.54,-272.54 -13.97,-13.25 -25.32,-30.05 -39.14,-43.99 -15.54,-15.67 -28,-22.92 -43.32,-39.66 -15.23,-16.65 -23.1,-27.86 -38.76,-44.55l-76.42 -96c-12.01,-15.27 -23.79,-32.69 -34.35,-48.81 -23.17,-35.39 -41.53,-68.8 -62.68,-109.57 -224.33,-432.47 -122.16,-856.6 169.51,-1212.12l81.11 -91.32c21.29,-24.33 113.84,-128.19 137.55,-125.24 4.84,0.61 154.57,131.86 167.78,161.68l-188.28 205.3c-12.63,15.11 -22.15,25.43 -35.17,41.9 -23.25,29.43 -46.55,60.37 -67.58,92.6 -77.23,118.34 -158.94,286.47 -158.93,467.98zm308.28 -1589.38l437.98 3.51c0.53,23.11 -54.66,77.82 -73.41,93.87 -31.51,26.98 -107.38,15.26 -153.1,15.53 -62.89,0.36 -112.66,14.82 -146.39,-22.63 -31.02,-34.43 -66.04,-66.93 -65.08,-90.28zm-158.1 -240.92l749.38 1.24c-3.3,26.16 -28.59,59.54 -42.01,82.03 -24.17,40.52 -34.89,28.06 -88.32,27.75l-487.07 -0.8c-57.71,0.18 -66.73,9.79 -92.73,-28.47 -14.65,-21.58 -37.67,-51.98 -39.25,-81.75zm-78.47 -211.16c-4.08,-25.77 -9.92,-61.11 -2.67,-89.1 193.7,-10.12 571.06,0.82 801.16,0.81 19.95,-0.01 39.9,-0.22 59.83,-0.29 7.52,-0.02 20.28,-0.28 27.08,1.48 32.68,8.47 23.84,46.11 12.61,72.02 -7.25,16.73 -0.75,6.48 -10.36,18.21l-887.65 -3.13zm-402.57 2498.82c-40.99,30.49 -221.67,20.82 -280.26,13.85 -79.26,-9.43 -171.77,-34.39 -243.07,-58.95 -222.87,-76.75 -323.95,-156.21 -484.44,-276.28 -37.23,-27.85 -202.18,-201.69 -223.96,-227.55l-132.13 -171.02c-328.64,-475.88 -393.24,-1151.84 -222.49,-1710.56 32.5,-106.32 119.7,-355.72 176.79,-423.34 54.58,-64.63 140.32,-81.96 200.09,-9.74 61.5,74.33 15.45,153.01 -16.79,227.89 -69.22,160.78 -109.63,274.06 -146.95,458.88 -129.16,639.77 69.77,1250.62 510.67,1686.37 13.76,13.6 24.57,24.99 39.63,37.53l37.4 33.75c134.27,128.84 396.41,276.85 564.88,343.61 31.34,12.42 213.03,68.14 220.63,75.56zm2368.6 -317.5c70.35,-53.84 144,-110.68 204.92,-175.02 25.25,-26.67 45.82,-51.82 70.73,-77.77l136.31 -166.47c296.05,-405.77 392.32,-929.82 299.46,-1445.55 -29.81,-165.66 -88.27,-309.86 -149.68,-456.16 -31.87,-75.94 -79.88,-147.87 -15.81,-221.49 38.61,-44.38 104.97,-64.44 166.73,-30.22 78.73,43.63 182.46,359.02 213.84,464.04 192.17,643.32 73.36,1382.19 -358.81,1886.21 -13.96,16.28 -18.18,22.67 -35.15,42.09l-109.78 116.32c-9.57,8.17 -13.43,10.15 -22.36,19.35 -10.06,10.38 -6.98,9.38 -17.11,18.24l-127.7 98.28c-129.1,92.31 -240.97,151.83 -400.41,205.74 -113.79,38.49 -441.88,98.91 -525.67,39.91 6.52,-7.05 3.98,-8.46 28.97,-15.4 143.99,-39.98 274.45,-82.9 407.86,-155.69 89.32,-48.74 157.66,-88.23 233.66,-146.41zm-1951.75 -2501.21c14.33,-110.12 37.25,-93.13 89.28,-93.32l743.25 0.78c9.46,25.9 35.19,61.92 32.62,89.65l-865.15 2.89zm-82.98 1344.55c-23.66,-9.48 -145.63,-114.44 -170.69,-137.11l-145.2 -163.75c-44.75,-62.58 -81.7,-111.85 -119.07,-189.84 -32.81,-68.47 -61.46,-142.36 -80.38,-222.56 -44.83,-190.08 -42.38,-351.87 27.07,-527.89 38.78,-98.26 183.16,-319.15 255.47,-354.23 -34.65,61.53 -58.23,96.44 -88.2,176.4 -78.48,209.41 -65.71,467.26 8.11,670.14 65.38,179.68 160.1,370.41 285.76,504.13l129.05 132.99c-4.67,9.83 -39.03,50.13 -47.88,60.05 -12.1,13.56 -40.04,40.57 -54.04,51.67zm171.94 -1589.94c0.89,-27.72 19.23,-88.12 48.61,-93.12l432.81 -0.03c66.18,0 155.52,-12.17 177.47,22.03l37.84 71.11 -696.73 0.01zm750.88 1484.16c11.48,-13.48 86.56,-77.05 134.44,-136.64 224.61,-279.47 396.48,-583.86 346.18,-969.5 -22.25,-170.55 -71.82,-270.14 -141.93,-389.5 80.94,60.93 173.04,173.35 225.1,264.64 177.45,311.14 105.39,691.47 -89.36,970.94 -89.99,129.14 -123.87,158.87 -221.78,247.81l-49.33 45.45c-17.75,14.72 -89.94,71.13 -112.87,75.26 -53.12,-84.42 -80.19,-67.7 -90.45,-108.46zm1266.19 -1262.52c-51.88,-65.26 -49.43,-54.63 -75.44,-84.74 -85.88,-99.47 -140.72,-142.54 -229.02,-228.4 -24.44,-23.77 -87.17,-73.52 -94.79,-105.25 36,-50.71 98.41,0.03 133.95,24.4 132.39,90.77 276,220.48 367.3,351.68 14.88,21.37 27.12,36.01 42.39,58.6 51.64,76.32 207.91,350 199.32,414.93 -5.38,40.63 -51.41,21.76 -69.16,7.28 -25.36,-20.7 -90.39,-159.75 -109.67,-193.73 -28.93,-50.99 -82.66,-143.72 -119.65,-189.1 -9.65,-11.83 -15.79,-21.55 -22.99,-30.43 -8.58,-10.61 -13.29,-13.99 -22.24,-25.24zm-2939.31 -434.61c3.49,40.12 -66.29,90.69 -92.17,112.28l-353.67 370.78c-84.15,113.91 -131.54,191.59 -192.93,323.89 -8.58,18.47 -24.71,54.43 -34.57,66.43 -14.63,17.79 -63.92,33.6 -75.68,4.07 -19.94,-50.05 94.66,-262.12 116.97,-301.1 113.7,-198.7 294.89,-418.68 494.28,-539.82 40.31,-24.5 89.04,-71.82 137.77,-36.53zm-882.47 -99.07c52.9,-13.45 92.98,26.14 104.08,64.23 14.25,48.88 -24.49,98.15 -59.74,108.5 -109.2,32.1 -154.44,-144.75 -44.34,-172.73zm4239.5 -0.22c119.85,-45.84 161.41,131.89 61.56,170.49 -109.5,42.33 -172.44,-128.09 -61.56,-170.49zm-2008.22 1620.99c6.98,-21.53 17.7,-27.03 35.21,-40.21 57.36,-43.18 71.52,-69.21 107.17,-100.7 54.74,-48.37 30.65,-33.55 66.1,-70.52 88.58,-92.36 207.5,-313.32 236.62,-452.42 33.71,-160.94 39.07,-338.04 -1.58,-500.42 -17.84,-71.27 -45.46,-145.04 -74.57,-204.18 -15.36,-31.18 -31.23,-57.48 -49.07,-87.52 -18.41,-30.95 -42.46,-55.01 -51.76,-87.48 45.25,15.6 141.04,124.68 170.13,159.64 290.37,349.07 300.73,823 41.19,1199.62 -50.23,72.9 -84.21,102.24 -108.38,135.28 -14.03,19.17 -18.86,25.18 -35.45,41.79 -28.79,28.81 -58.2,48.32 -84.85,75.8 -116.47,120.14 -83.86,63.65 -169.09,-3.08 -28.9,-22.63 -54.46,-46.11 -81.67,-65.6zm-829.28 -763.03c-0.42,-245.65 71.23,-383.82 183.28,-558.17 40.46,-62.93 155.16,-198.49 216.12,-211.01 -236.86,311.99 -284.84,784.83 -81.75,1139.88 82.14,143.58 110.8,162.52 200.66,262.37 57.57,63.96 90.67,81.26 120.79,110.96 16.19,15.95 18.9,24.2 37.7,39.28l204.34 181.95c44.4,35.29 191.41,195.8 230.92,232.45l72.9 81.53c194.94,245.07 387.17,559.61 294.95,974.19 -47.63,214.15 -125.42,325.17 -229.08,465.25l-191.62 194.48c-28.66,21.53 -56.42,50.67 -85.99,67.85 -43.66,-16.25 -39.9,-29.75 -71.74,-57.97 -23.08,-20.45 -52.62,-31.96 -72.23,-54.21 8.23,-23.47 47.37,-52.6 72.49,-71.5 57.93,-43.59 66.47,-57.48 107.11,-106.75l96.07 -117.49c192.51,-275.62 211.3,-580.22 62.98,-885.29 -64.99,-133.66 -117.09,-194.79 -201.15,-297.35l-169.69 -186.76 -332.77 -308.74c-46.67,-50.22 -60.71,-57.86 -109.75,-104.09l-130.57 -154.66c-20.67,-30.4 -42.05,-54.49 -59.39,-83.13 -103.16,-170.29 -164.21,-333.34 -164.58,-553.07zm-187.66 2195.37c-31.56,0.71 -191.03,-78.5 -223.93,-97.64 -73.17,-42.57 -178.22,-117.14 -236.9,-173 -15.56,-14.81 -28.27,-24.31 -43.66,-39.59 -93.38,-92.56 -145.05,-159.63 -211.14,-275.95 -177.44,-312.24 -239.53,-678.07 -178.48,-1079.66 40.55,-266.76 133.89,-493.34 275.28,-705.23 50.43,-75.55 65.56,-85.1 109.59,-139.91 42.09,-52.38 69.21,-73.94 118.81,-124.94 15.74,-16.17 30.67,-22.13 46.14,-37.24 178.85,-174.75 467.03,-289.61 713.93,-339.54 -28.92,17.17 -58.6,35.33 -90.97,53.78 -32.71,18.65 -58.65,38.46 -90.17,58.6 -16.94,10.81 -28.08,21.29 -44.09,33.05 -72.71,53.34 -104.92,89.61 -160.49,136.44 -14.2,11.97 -23.19,21.54 -35.66,35.53 -23.54,26.38 -46.78,50.89 -70.26,78.45l-130.48 160.27c-413.98,538.12 -546.23,1138.47 -256.21,1794.54 78.14,176.77 181.3,360.9 320.13,493.09l116.71 102.98c16.87,14.93 64.64,44.89 71.85,65.97zm2536.93 -1423.22c0.96,-353.39 -157.72,-711.66 -358.37,-970.31 -89.41,-115.25 -132.25,-170.25 -227.51,-271.26l-84.39 -81.94c-39.44,-41.24 -55.03,-47.41 -88.47,-77.77 -53.36,-48.44 -246.87,-193.37 -286.41,-198.36 48.31,1.2 230.16,64.25 280.76,84.89 112.41,45.88 260.83,124.25 354.92,197.58l99.74 84.38c29.4,31.33 63,55.13 93.87,90.5 141.98,162.69 121.69,135.36 240.16,318.39 150.81,233.02 237.93,579.31 238.32,865.48 0.33,240.6 -51.04,497.14 -160.33,706.09 -143.44,274.23 -298.7,434.9 -554.13,586.52 -42.92,25.48 -147,84.07 -194.19,90.84 13.61,-34.59 73.16,-68.57 98.62,-97.53 13.85,-15.76 14.42,-17.89 29.22,-30.01 102.04,-83.52 256.2,-302.61 313.97,-434.23 136.02,-309.87 203.24,-507.1 204.22,-863.26zm-3314.96 -2031.26c97.9,-23.96 170.76,43.95 194.12,117.21 29.71,93.24 -50.39,182.15 -116.87,201.62 -154.76,45.35 -265.86,-138.06 -177.97,-255.78 24.36,-32.62 53.4,-51.46 100.72,-63.05zm3353.57 -1.38c100.2,-27.06 180,43.69 204.06,117.26 31.67,96.84 -48.44,183.05 -119.4,200.92 -215.49,54.29 -302.3,-259.41 -84.66,-318.18zm-727.28 51.8c61.4,-15.4 111.81,29.37 120.54,80.54 10.37,60.65 -33.25,120.39 -79.03,129.24 -120.89,23.37 -184.56,-173.93 -41.51,-209.78zm-1878.37 2.99c119.39,-41.25 184.13,159.89 52.39,203.85 -129.83,43.31 -189.57,-156.45 -52.39,-203.85zm895.18 -649.72c69.96,-8.3 149.57,-3.24 215.61,16.88 82.49,25.13 171.96,88.46 219.83,148.67 53.46,67.23 100.99,152.26 111.18,245.86 31.54,289.41 -156.53,520.96 -399.13,554.04 -74.42,10.14 -152.73,6.37 -220.37,-12.67 -108.19,-30.44 -217.87,-123.36 -268.38,-218.74 -97.93,-184.94 -82.53,-398.68 34.95,-555.68 62.96,-84.15 194.58,-165.1 306.31,-178.36zm1490.81 327.62c55.39,-21.3 104.99,68 34.51,97.09 -63.95,26.41 -110.44,-67.91 -34.51,-97.09zm-2275.2 -238.05c69.82,-23.85 124.64,19.13 141.98,67.65 21.97,61.48 -31.92,121.81 -70.1,137.5 -128.62,52.88 -224.12,-153.11 -71.88,-205.15zm107.4 4563.9l90.76 121.35c10.39,11.36 13.6,18.08 23.71,29.93l76.48 85.81c-38.67,40.35 -198.27,101.24 -245.72,118.67 -493.94,181.34 -1019.3,88.02 -1443.99,-200.93l-151.44 -115.91c-11.75,-8.89 -16.33,-9.69 -26.84,-20.8 -10.17,-10.77 -12.72,-16.43 -21.69,-25.84 -66.39,-69.56 -117.2,-107.92 -177.26,-191.21 -51.38,-71.26 -99.86,-134.83 -146.51,-215.81 -89.97,-156.23 -171.42,-322.45 -227.26,-497.66 -30.83,-96.74 -56,-184.79 -83.09,-284.96 -111.73,-413.09 -120.03,-901.24 -52.4,-1328.21 73.91,-466.7 260.08,-908.36 525.74,-1292.93 64.1,-92.79 127.34,-173.76 199.76,-257.58l84.1 -94.19c16.34,-18.04 27.75,-33.14 43.71,-51.64 28.79,-33.35 64.95,-55.99 92.86,-91.18 29.94,-37.72 67.42,-54.47 95.97,-88.16 22.56,-26.6 26.43,-21.92 46.5,-42.64 54.41,-56.17 140.36,-108.87 202.5,-159.95 50.78,-41.75 110.45,-76.33 164.52,-114.66 145.49,-103.19 310.54,-181.56 472.46,-257.98 354.2,-167.16 773.01,-258 1204.22,-258.58 457.93,-0.59 825.57,90.47 1204.67,252.05 81.4,34.7 173.1,75.27 245.33,117.11 179.08,103.7 418.46,248.69 566.8,389.58l259.47 245.47c17.42,19.21 22.3,26.17 43.74,45.27 11.86,10.58 11.8,12.55 21.91,25.74l63.59 73.03c14.51,14.15 30.1,33.54 43.91,50.95l78.94 99.38c77.08,107.25 152.96,211.95 220.71,331.88 184.83,327.19 314.08,645.35 390.95,1070.86 150.85,834.97 -90.68,1800.56 -505.29,2334.64 -22.95,29.55 -55.37,71.95 -80.58,97.8 -168.18,172.48 -312.6,278.01 -527.59,387.18 -86.09,43.71 -168.56,73.79 -265.84,102.55 -224.67,66.42 -421.8,71.06 -661.68,44.24 -150.05,-16.79 -421.51,-108.93 -537.36,-195.58 5.29,-17.79 6.56,-17.58 19.9,-30.33l172.75 -201.91c197.98,72.19 289.88,113.22 516.75,121.2 324.81,11.45 610.95,-82.43 866.91,-257.67l88.78 -71.41c40.72,-35.56 105.27,-94.84 139.88,-139.32 6.79,-8.72 12.04,-12.97 19.46,-21.8 48.45,-57.59 98.15,-117.08 138.41,-182.23 339.81,-549.84 468.5,-1390.83 301.86,-2114.99 -113.66,-493.89 -336.86,-905.98 -652.72,-1264.85 -38.25,-43.45 -68.79,-87.16 -114.06,-123.7 -44.83,-36.17 -77.45,-84.41 -121.85,-121.53 -55.41,-46.32 -111.8,-102.33 -172.73,-147.95 -149.98,-112.31 -311.39,-234.84 -484.83,-316.88 -74.06,-35.03 -142.46,-68.69 -218.85,-101.82 -483.82,-209.85 -1103.02,-271.26 -1640.13,-153.15 -379.94,83.55 -686.68,235.76 -999.3,444.01l-248.57 190.73c-11.25,8.93 -13.13,8.82 -23.18,18.63 -39.81,38.85 -84.84,68.09 -122.42,109.25l-120.99 122.31c-55.34,46.51 -177.06,194.5 -221.51,259.46 -241.67,353.17 -402.02,618.83 -510.19,1092.73 -123.24,539.81 -80.83,1157.97 106.18,1678.37 83.74,233.05 180.19,443.9 343.68,618.26 27.87,29.74 47.22,56.36 76.05,84.15 27.3,26.32 56.25,47.7 86.86,73.6 58.05,49.14 120.05,95.07 186.58,133.78 67.28,39.13 139.28,74.05 215.29,105.64 161.73,67.26 361.2,93.44 551.26,89.16 96.33,-2.15 187.47,-20.77 276.08,-44.27 74.31,-19.7 196.73,-75.78 235.88,-84.56zm733.33 1786.78c49.13,3.63 48.06,-16.28 76.68,-37.64 22.97,-17.14 42.57,-30.49 65.99,-46.99 42.51,-29.94 230.52,-178.15 259.8,-185.16 53.65,-12.86 131.93,-18.12 191.3,-28.61 218.02,-38.54 495.03,-116.36 683.69,-201.72 50.85,-22.99 108.26,-43.06 156.94,-68.8 391.94,-207.24 397.26,-217.93 747.67,-475.7 60.73,-44.67 126.76,-114.06 174.18,-152.49l168.82 -169.62c41.11,-35.8 217.6,-255.81 251.03,-301.07 267.97,-362.75 459.39,-752.77 580.02,-1195.45 64.08,-235.11 106.51,-516.37 114.36,-771.24 18.42,-597.97 -68.28,-978.49 -277.24,-1499.16 -86.15,-214.65 -193.71,-410.74 -309.12,-581.56 -15.95,-23.6 -31.51,-41.9 -47.18,-65.45 -50.87,-76.36 -88.22,-120.05 -141.68,-191.02 -96.16,-127.66 -348.94,-390.69 -462.79,-481.34l-154.32 -124.79c-22.52,-16.85 -38.05,-30.71 -60.5,-46.39l-267.2 -178.23c-81.65,-53.96 -187.7,-109.66 -284.56,-154.7 -439.41,-204.28 -886.13,-329.69 -1440.24,-330.15 -521.42,-0.44 -1031.45,127.55 -1444.44,331.66 -336.63,166.38 -423.9,237.01 -685.33,431.26 -28.55,21.21 -158.98,126.47 -180.33,152.26 -31.54,38.09 -143.98,126.66 -220.04,219.45 -13.05,15.93 -13.23,13.69 -29.69,29.36l-125.13 148.27c-212,262.73 -362.92,515.78 -499.46,830.82 -178.4,411.66 -315.12,983.09 -285.66,1491.89 31.17,538.14 155.39,982.39 361.62,1415.86 93.62,196.78 258.53,468.19 386.17,617.55 16.36,19.14 32.37,43.68 49.86,63.02l99.47 120.21c18.9,24.39 35.74,35.11 54.71,57.96l219.5 220.01c22.54,19.87 34.83,28.76 60.41,52.4 13.71,12.67 16.12,11.98 31.92,27.53l87.53 72.81c457.59,345.17 939.14,584.4 1521.54,693.68 61.71,11.57 128.8,28.42 189.42,35.51 61.48,7.19 44.94,1.61 78.6,35.31 29.33,29.36 238.96,177.63 281.47,211.82 18.12,14.59 9.53,12.08 22.21,28.64z"/>
  <path class="fil1" d="M5198.77 8699.36c-12.68,-16.56 -4.09,-14.05 -22.21,-28.64 -42.51,-34.19 -252.14,-182.46 -281.47,-211.82 -33.66,-33.7 -17.12,-28.12 -78.6,-35.31 -60.62,-7.09 -127.71,-23.94 -189.42,-35.51 -582.4,-109.28 -1063.95,-348.51 -1521.54,-693.68l-87.53 -72.81c-15.8,-15.55 -18.21,-14.86 -31.92,-27.53 -25.58,-23.64 -37.87,-32.53 -60.41,-52.4l-219.5 -220.01c-18.97,-22.85 -35.81,-33.57 -54.71,-57.96l-99.47 -120.21c-17.49,-19.34 -33.5,-43.88 -49.86,-63.02 -127.64,-149.36 -292.55,-420.77 -386.17,-617.55 -206.23,-433.47 -330.45,-877.72 -361.62,-1415.86 -29.46,-508.8 107.26,-1080.23 285.66,-1491.89 136.54,-315.04 287.46,-568.09 499.46,-830.82l125.13 -148.27c16.46,-15.67 16.64,-13.43 29.69,-29.36 76.06,-92.79 188.5,-181.36 220.04,-219.45 21.35,-25.79 151.78,-131.05 180.33,-152.26 261.43,-194.25 348.7,-264.88 685.33,-431.26 412.99,-204.11 923.02,-332.1 1444.44,-331.66 554.11,0.46 1000.83,125.87 1440.24,330.15 96.86,45.04 202.91,100.74 284.56,154.7l267.2 178.23c22.45,15.68 37.98,29.54 60.5,46.39l154.32 124.79c113.85,90.65 366.63,353.68 462.79,481.34 53.46,70.97 90.81,114.66 141.68,191.02 15.67,23.55 31.23,41.85 47.18,65.45 115.41,170.82 222.97,366.91 309.12,581.56 208.96,520.67 295.66,901.19 277.24,1499.16 -7.85,254.87 -50.28,536.13 -114.36,771.24 -120.63,442.68 -312.05,832.7 -580.02,1195.45 -33.43,45.26 -209.92,265.27 -251.03,301.07l-168.82 169.62c-47.42,38.43 -113.45,107.82 -174.18,152.49 -350.41,257.77 -355.73,268.46 -747.67,475.7 -48.68,25.74 -106.09,45.81 -156.94,68.8 -188.66,85.36 -465.67,163.18 -683.69,201.72 -59.37,10.49 -137.65,15.75 -191.3,28.61 -29.28,7.01 -217.29,155.22 -259.8,185.16 -23.42,16.5 -43.02,29.85 -65.99,46.99 -28.62,21.36 -27.55,41.27 -76.68,37.64zm-131.22 -7553.42c-661.76,23.87 -1264.88,239.31 -1786.31,561.68 -128.71,79.58 -222.34,141.64 -344.93,237.43l-315.36 278.76c-43.06,42 -68.25,76.03 -118.32,119.29l-52.83 59.91c-93.95,109.72 -174.31,212.02 -257.92,330.48l-97.65 139.84c-224.92,371.8 -308.74,549.42 -446.71,961.11 -40.14,119.79 -67.3,249.81 -94.45,374.73 -56.74,260.98 -81.59,604.9 -69.73,873.58 32.14,728.62 311.02,1510.25 738.26,2076.02 48.52,64.25 149.87,197.55 207.76,261.48l170.61 185.84c41.57,37.67 52.71,59.68 114.97,116.71 12.31,11.27 19.45,17.19 31.97,27.63 14.6,12.2 16.37,17.93 29.19,29.93 68.9,64.57 344.02,267.07 401.6,305.42 628,418.15 1383.69,663.5 2183.13,634.23 438.93,-16.09 776.11,-94.13 1164.87,-245.16 113.5,-44.08 216.33,-89.29 324.31,-144.86 48.82,-25.11 109.79,-52.27 152.47,-79.1 127.24,-79.98 312.43,-189.2 424.2,-282.78l161.02 -130.04c82,-62.2 277.11,-254.19 333.52,-320.1l266.74 -315.22 144.61 -212.09c122.92,-183.8 228.7,-389.48 324.73,-613.57 207.03,-483.14 300.45,-1003.35 287.65,-1585.81 -12.58,-572.57 -165.19,-1046.72 -375.86,-1502.81 -131.59,-284.89 -245.96,-428.19 -397.47,-653.88 -11.57,-17.25 -13.59,-17.68 -26.49,-32.9 -9.2,-10.85 -18.57,-24.8 -25.55,-33.81 -19.05,-24.62 -31.81,-43.29 -51.97,-66.85 -46.21,-53.98 -85.48,-109.43 -138.09,-158.89 -10.41,-9.77 -17.95,-20.2 -27.87,-31.62l-115.92 -121.66c-40.18,-43.4 -75.89,-66.74 -119.09,-112.63l-97.57 -80.78c-11.67,-8.34 -21.85,-16.63 -33.12,-26.3 -129.72,-111.35 -423.28,-300.74 -561.27,-377.29 -99.64,-55.27 -209.55,-110.04 -318.4,-156.84 -485.28,-208.66 -1006.1,-310.09 -1588.73,-289.08z"/>
  <path class="fil2" d="M4465.44 6912.58c-39.15,8.78 -161.57,64.86 -235.88,84.56 -88.61,23.5 -179.75,42.12 -276.08,44.27 -190.06,4.28 -389.53,-21.9 -551.26,-89.16 -76.01,-31.59 -148.01,-66.51 -215.29,-105.64 -66.53,-38.71 -128.53,-84.64 -186.58,-133.78 -30.61,-25.9 -59.56,-47.28 -86.86,-73.6 -28.83,-27.79 -48.18,-54.41 -76.05,-84.15 -163.49,-174.36 -259.94,-385.21 -343.68,-618.26 -187.01,-520.4 -229.42,-1138.56 -106.18,-1678.37 108.17,-473.9 268.52,-739.56 510.19,-1092.73 44.45,-64.96 166.17,-212.95 221.51,-259.46l120.99 -122.31c37.58,-41.16 82.61,-70.4 122.42,-109.25 10.05,-9.81 11.93,-9.7 23.18,-18.63l248.57 -190.73c312.62,-208.25 619.36,-360.46 999.3,-444.01 537.11,-118.11 1156.31,-56.7 1640.13,153.15 76.39,33.13 144.79,66.79 218.85,101.82 173.44,82.04 334.85,204.57 484.83,316.88 60.93,45.62 117.32,101.63 172.73,147.95 44.4,37.12 77.02,85.36 121.85,121.53 45.27,36.54 75.81,80.25 114.06,123.7 315.86,358.87 539.06,770.96 652.72,1264.85 166.64,724.16 37.95,1565.15 -301.86,2114.99 -40.26,65.15 -89.96,124.64 -138.41,182.23 -7.42,8.83 -12.67,13.08 -19.46,21.8 -34.61,44.48 -99.16,103.76 -139.88,139.32l-88.78 71.41c-255.96,175.24 -542.1,269.12 -866.91,257.67 -226.87,-7.98 -318.77,-49.01 -516.75,-121.2l-172.75 201.91c-13.34,12.75 -14.61,12.54 -19.9,30.33 115.85,86.65 387.31,178.79 537.36,195.58 239.88,26.82 437.01,22.18 661.68,-44.24 97.28,-28.76 179.75,-58.84 265.84,-102.55 214.99,-109.17 359.41,-214.7 527.59,-387.18 25.21,-25.85 57.63,-68.25 80.58,-97.8 414.61,-534.08 656.14,-1499.67 505.29,-2334.64 -76.87,-425.51 -206.12,-743.67 -390.95,-1070.86 -67.75,-119.93 -143.63,-224.63 -220.71,-331.88l-78.94 -99.38c-13.81,-17.41 -29.4,-36.8 -43.91,-50.95l-63.59 -73.03c-10.11,-13.19 -10.05,-15.16 -21.91,-25.74 -21.44,-19.1 -26.32,-26.06 -43.74,-45.27l-259.47 -245.47c-148.34,-140.89 -387.72,-285.88 -566.8,-389.58 -72.23,-41.84 -163.93,-82.41 -245.33,-117.11 -379.1,-161.58 -746.74,-252.64 -1204.67,-252.05 -431.21,0.58 -850.02,91.42 -1204.22,258.58 -161.92,76.42 -326.97,154.79 -472.46,257.98 -54.07,38.33 -113.74,72.91 -164.52,114.66 -62.14,51.08 -148.09,103.78 -202.5,159.95 -20.07,20.72 -23.94,16.04 -46.5,42.64 -28.55,33.69 -66.03,50.44 -95.97,88.16 -27.91,35.19 -64.07,57.83 -92.86,91.18 -15.96,18.5 -27.37,33.6 -43.71,51.64l-84.1 94.19c-72.42,83.82 -135.66,164.79 -199.76,257.58 -265.66,384.57 -451.83,826.23 -525.74,1292.93 -67.63,426.97 -59.33,915.12 52.4,1328.21 27.09,100.17 52.26,188.22 83.09,284.96 55.84,175.21 137.29,341.43 227.26,497.66 46.65,80.98 95.13,144.55 146.51,215.81 60.06,83.29 110.87,121.65 177.26,191.21 8.97,9.41 11.52,15.07 21.69,25.84 10.51,11.11 15.09,11.91 26.84,20.8l151.44 115.91c424.69,288.95 950.05,382.27 1443.99,200.93 47.45,-17.43 207.05,-78.32 245.72,-118.67l-76.48 -85.81c-10.11,-11.85 -13.32,-18.57 -23.71,-29.93l-90.76 -121.35z"/>
  <path class="fil3" d="M4465.02 4114.53c0.37,219.73 61.42,382.78 164.58,553.07 17.34,28.64 38.72,52.73 59.39,83.13l130.57 154.66c49.04,46.23 63.08,53.87 109.75,104.09l332.77 308.74 169.69 186.76c84.06,102.56 136.16,163.69 201.15,297.35 148.32,305.07 129.53,609.67 -62.98,885.29l-96.07 117.49c-40.64,49.27 -49.18,63.16 -107.11,106.75 -25.12,18.9 -64.26,48.03 -72.49,71.5 19.61,22.25 49.15,33.76 72.23,54.21 31.84,28.22 28.08,41.72 71.74,57.97 29.57,-17.18 57.33,-46.32 85.99,-67.85l191.62 -194.48c103.66,-140.08 181.45,-251.1 229.08,-465.25 92.22,-414.58 -100.01,-729.12 -294.95,-974.19l-72.9 -81.53c-39.51,-36.65 -186.52,-197.16 -230.92,-232.45l-204.34 -181.95c-18.8,-15.08 -21.51,-23.33 -37.7,-39.28 -30.12,-29.7 -63.22,-47 -120.79,-110.96 -89.86,-99.85 -118.52,-118.79 -200.66,-262.37 -203.09,-355.05 -155.11,-827.89 81.75,-1139.88 -60.96,12.52 -175.66,148.08 -216.12,211.01 -112.05,174.35 -183.7,312.52 -183.28,558.17z"/>
  <path class="fil2" d="M6060.03 6632.93c83.79,59 411.88,-1.42 525.67,-39.91 159.44,-53.91 271.31,-113.43 400.41,-205.74l127.7 -98.28c10.13,-8.86 7.05,-7.86 17.11,-18.24 8.93,-9.2 12.79,-11.18 22.36,-19.35l109.78 -116.32c16.97,-19.42 21.19,-25.81 35.15,-42.09 432.17,-504.02 550.98,-1242.89 358.81,-1886.21 -31.38,-105.02 -135.11,-420.41 -213.84,-464.04 -61.76,-34.22 -128.12,-14.16 -166.73,30.22 -64.07,73.62 -16.06,145.55 15.81,221.49 61.41,146.3 119.87,290.5 149.68,456.16 92.86,515.73 -3.41,1039.78 -299.46,1445.55l-136.31 166.47c-24.91,25.95 -45.48,51.1 -70.73,77.77 -60.92,64.34 -134.57,121.18 -204.92,175.02 -76,58.18 -144.34,97.67 -233.66,146.41 -133.41,72.79 -263.87,115.71 -407.86,155.69 -24.99,6.94 -22.45,8.35 -28.97,15.4z"/>
  <path class="fil2" d="M4361.92 6632.93c-7.6,-7.42 -189.29,-63.14 -220.63,-75.56 -168.47,-66.76 -430.61,-214.77 -564.88,-343.61l-37.4 -33.75c-15.06,-12.54 -25.87,-23.93 -39.63,-37.53 -440.9,-435.75 -639.83,-1046.6 -510.67,-1686.37 37.32,-184.82 77.73,-298.1 146.95,-458.88 32.24,-74.88 78.29,-153.56 16.79,-227.89 -59.77,-72.22 -145.51,-54.89 -200.09,9.74 -57.09,67.62 -144.29,317.02 -176.79,423.34 -170.75,558.72 -106.15,1234.68 222.49,1710.56l132.13 171.02c21.78,25.86 186.73,199.7 223.96,227.55 160.49,120.07 261.57,199.53 484.44,276.28 71.3,24.56 163.81,49.52 243.07,58.95 58.59,6.97 239.27,16.64 280.26,-13.85z"/>
  <path class="fil1" d="M5142.43 2259.11c-111.73,13.26 -243.35,94.21 -306.31,178.36 -117.48,157 -132.88,370.74 -34.95,555.68 50.51,95.38 160.19,188.3 268.38,218.74 67.64,19.04 145.95,22.81 220.37,12.67 242.6,-33.08 430.67,-264.63 399.13,-554.04 -10.19,-93.6 -57.72,-178.63 -111.18,-245.86 -47.87,-60.21 -137.34,-123.54 -219.83,-148.67 -66.04,-20.12 -145.65,-25.18 -215.61,-16.88z"/>
  <path class="fil4" d="M4277.36 6309.9c-7.21,-21.08 -54.98,-51.04 -71.85,-65.97l-116.71 -102.98c-138.83,-132.19 -241.99,-316.32 -320.13,-493.09 -290.02,-656.07 -157.77,-1256.42 256.21,-1794.54l130.48 -160.27c23.48,-27.56 46.72,-52.07 70.26,-78.45 12.47,-13.99 21.46,-23.56 35.66,-35.53 55.57,-46.83 87.78,-83.1 160.49,-136.44 16.01,-11.76 27.15,-22.24 44.09,-33.05 31.52,-20.14 57.46,-39.95 90.17,-58.6 32.37,-18.45 62.05,-36.61 90.97,-53.78 -246.9,49.93 -535.08,164.79 -713.93,339.54 -15.47,15.11 -30.4,21.07 -46.14,37.24 -49.6,51 -76.72,72.56 -118.81,124.94 -44.03,54.81 -59.16,64.36 -109.59,139.91 -141.39,211.89 -234.73,438.47 -275.28,705.23 -61.05,401.59 1.04,767.42 178.48,1079.66 66.09,116.32 117.76,183.39 211.14,275.95 15.39,15.28 28.1,24.78 43.66,39.59 58.68,55.86 163.73,130.43 236.9,173 32.9,19.14 192.37,98.35 223.93,97.64z"/>
  <path class="fil5" d="M6814.29 4886.68c-0.98,356.16 -68.2,553.39 -204.22,863.26 -57.77,131.62 -211.93,350.71 -313.97,434.23 -14.8,12.12 -15.37,14.25 -29.22,30.01 -25.46,28.96 -85.01,62.94 -98.62,97.53 47.19,-6.77 151.27,-65.36 194.19,-90.84 255.43,-151.62 410.69,-312.29 554.13,-586.52 109.29,-208.95 160.66,-465.49 160.33,-706.09 -0.39,-286.17 -87.51,-632.46 -238.32,-865.48 -118.47,-183.03 -98.18,-155.7 -240.16,-318.39 -30.87,-35.37 -64.47,-59.17 -93.87,-90.5l-99.74 -84.38c-94.09,-73.33 -242.51,-151.7 -354.92,-197.58 -50.6,-20.64 -232.45,-83.69 -280.76,-84.89 39.54,4.99 233.05,149.92 286.41,198.36 33.44,30.36 49.03,36.53 88.47,77.77l84.39 81.94c95.26,101.01 138.1,156.01 227.51,271.26 200.65,258.65 359.33,616.92 358.37,970.31z"/>
  <path class="fil4" d="M4692.78 6175.57c-0.01,-181.51 81.7,-349.64 158.93,-467.98 21.03,-32.23 44.33,-63.17 67.58,-92.6 13.02,-16.47 22.54,-26.79 35.17,-41.9l188.28 -205.3c-13.21,-29.82 -162.94,-161.07 -167.78,-161.68 -23.71,-2.95 -116.26,100.91 -137.55,125.24l-81.11 91.32c-291.67,355.52 -393.84,779.65 -169.51,1212.12 21.15,40.77 39.51,74.18 62.68,109.57 10.56,16.12 22.34,33.54 34.35,48.81l76.42 96c15.66,16.69 23.53,27.9 38.76,44.55 15.32,16.74 27.78,23.99 43.32,39.66 13.82,13.94 25.17,30.74 39.14,43.99 81.6,77.42 238.84,194.18 327.54,272.54 19.21,16.98 29.35,21.94 45.12,38.05 43.47,44.4 124.66,107.37 173.8,170.44 24.83,31.87 50.43,60.12 73.91,98.31 130.73,212.66 153.29,441.08 43.76,664.61 -112.55,229.7 -237.81,298.13 -288.89,382.18 92.87,-63.32 91.14,-81.23 135.33,-114.5l136.73 -112.68 111.3 -138.36c198.35,-327.63 98.6,-703.2 -107.1,-925.89 -23.45,-25.4 -33.98,-45.09 -59.79,-71.02l-100.29 -89.87c-16.78,-15.59 -20.26,-15.34 -32.93,-26.6l-132.56 -116.82c-26.48,-25.01 -43.18,-36.36 -66.88,-57.81l-93.65 -96.42c-14.52,-16.51 -12.73,-12.66 -30.65,-28.46l-88.48 -101.62c-12.08,-13.16 -13.98,-17.4 -26.37,-33.01 -34.07,-42.92 -69.47,-91.73 -99.57,-149.73 -63.93,-123.16 -109.01,-243.57 -109.01,-405.14z"/>
  <path class="fil6" d="M2688.45 7238.69c24.67,47.09 62.2,80 93.11,114.57l99.95 107.95c35.29,37.34 74.41,65.04 106.66,101.31 80.34,90.3 280.31,186.53 396.14,227.67 325.25,115.52 708.74,66.72 985.48,-123.07 69.53,-47.68 171.75,-129.6 212.97,-185.09l86.36 -109.75c24.75,-35.03 58.62,-78.38 79.13,-115.21 -16.31,5 -82.99,54.47 -102.42,68.3 -129.15,91.94 -159.43,115.83 -317.52,187.07 -370.79,167.08 -812.33,152.9 -1176.64,-6.74 -85.24,-37.36 -164.09,-80.41 -240.19,-128.01l-223.03 -139z"/>
  <path class="fil7" d="M6709.32 7852.63c245.09,-0.2 465.89,-99.25 627.51,-206.18 58.77,-38.88 117.15,-95.63 171.46,-143.24 65.79,-57.68 207.85,-192.53 251.69,-264.12 -37.6,17.52 -70.95,45.35 -109.59,67.59 -152.49,87.77 -136.07,97.32 -342.16,192.28 -460.79,212.32 -999.64,171.51 -1415.26,-103.32 -40.72,-26.92 -178.62,-119.4 -201.92,-147.28 69.42,130.72 201.81,284.22 317.16,382.66 177.02,151.04 431.01,221.84 701.11,221.61z"/>
  <path class="fil4" d="M5294.3 4877.56c27.21,19.49 52.77,42.97 81.67,65.6 85.23,66.73 52.62,123.22 169.09,3.08 26.65,-27.48 56.06,-46.99 84.85,-75.8 16.59,-16.61 21.42,-22.62 35.45,-41.79 24.17,-33.04 58.15,-62.38 108.38,-135.28 259.54,-376.62 249.18,-850.55 -41.19,-1199.62 -29.09,-34.96 -124.88,-144.04 -170.13,-159.64 9.3,32.47 33.35,56.53 51.76,87.48 17.84,30.04 33.71,56.34 49.07,87.52 29.11,59.14 56.73,132.91 74.57,204.18 40.65,162.38 35.29,339.48 1.58,500.42 -29.12,139.1 -148.04,360.06 -236.62,452.42 -35.45,36.97 -11.36,22.15 -66.1,70.52 -35.65,31.49 -49.81,57.52 -107.17,100.7 -17.51,13.18 -28.23,18.68 -35.21,40.21z"/>
  <path class="fil8" d="M5618.61 5052.99c10.26,40.76 37.33,24.04 90.45,108.46 22.93,-4.13 95.12,-60.54 112.87,-75.26l49.33 -45.45c97.91,-88.94 131.79,-118.67 221.78,-247.81 194.75,-279.47 266.81,-659.8 89.36,-970.94 -52.06,-91.29 -144.16,-203.71 -225.1,-264.64 70.11,119.36 119.68,218.95 141.93,389.5 50.3,385.64 -121.57,690.03 -346.18,969.5 -47.88,59.59 -122.96,123.16 -134.44,136.64z"/>
  <path class="fil4" d="M4695.79 5158.77c14,-11.1 41.94,-38.11 54.04,-51.67 8.85,-9.92 43.21,-50.22 47.88,-60.05l-129.05 -132.99c-125.66,-133.72 -220.38,-324.45 -285.76,-504.13 -73.82,-202.88 -86.59,-460.73 -8.11,-670.14 29.97,-79.96 53.55,-114.87 88.2,-176.4 -72.31,35.08 -216.69,255.97 -255.47,354.23 -69.45,176.02 -71.9,337.81 -27.07,527.89 18.92,80.2 47.57,154.09 80.38,222.56 37.37,77.99 74.32,127.26 119.07,189.84l145.2 163.75c25.06,22.67 147.03,127.63 170.69,137.11z"/>
  <path class="fil9" d="M5170.22 8628.91c-13.82,-26.69 -167.79,-176.33 -204.75,-228.27 -82.93,-116.53 -134.85,-217.65 -150.08,-395.47 -14.17,-165.54 66.47,-348.94 157.87,-459.39l55.83 -62.71c22.68,-22.49 37.91,-43.13 58.98,-65.92l66.53 -53.66c-8.71,-15.12 -51.75,-48.35 -66.4,-60.02 -65.27,-51.98 -42.08,-96.2 -146.72,2.83 -185.1,175.19 -283.26,435.74 -252.15,698.78 24.11,203.87 146.15,350.87 291.22,475.36l189.67 148.47z"/>
  <path class="fil10" d="M3945.49 3355.86c-48.73,-35.29 -97.46,12.03 -137.77,36.53 -199.39,121.14 -380.58,341.12 -494.28,539.82 -22.31,38.98 -136.91,251.05 -116.97,301.1 11.76,29.53 61.05,13.72 75.68,-4.07 9.86,-12 25.99,-47.96 34.57,-66.43 61.39,-132.3 108.78,-209.98 192.93,-323.89l353.67 -370.78c25.88,-21.59 95.66,-72.16 92.17,-112.28z"/>
  <path class="fil11" d="M6128.84 5223.84c-246.22,63.03 -154.04,435.59 96.37,366.62 234.49,-64.61 146.35,-428.75 -96.37,-366.62z"/>
  <path class="fil12" d="M4204 5223.25c-249.26,61.2 -135.98,444.11 91.79,368.67 244.95,-81.12 147.52,-427.43 -91.79,-368.67z"/>
  <path class="fil13" d="M6485.55 3372.08c7.62,31.73 70.35,81.48 94.79,105.25 88.3,85.86 143.14,128.93 229.02,228.4 26.01,30.11 23.56,19.48 75.44,84.74 8.95,11.25 13.66,14.63 22.24,25.24 7.2,8.88 13.34,18.6 22.99,30.43 36.99,45.38 90.72,138.11 119.65,189.1 19.28,33.98 84.31,173.03 109.67,193.73 17.75,14.48 63.78,33.35 69.16,-7.28 8.59,-64.93 -147.68,-338.61 -199.32,-414.93 -15.27,-22.59 -27.51,-37.23 -42.39,-58.6 -91.3,-131.2 -234.91,-260.91 -367.3,-351.68 -35.54,-24.37 -97.95,-75.11 -133.95,-24.4z"/>
  <path class="fil7" d="M6852.9 2854.04c-217.64,58.77 -130.83,372.47 84.66,318.18 70.96,-17.87 151.07,-104.08 119.4,-200.92 -24.06,-73.57 -103.86,-144.32 -204.06,-117.26z"/>
  <path class="fil6" d="M3499.33 2855.42c-47.32,11.59 -76.36,30.43 -100.72,63.05 -87.89,117.72 23.21,301.13 177.97,255.78 66.48,-19.47 146.58,-108.38 116.87,-201.62 -23.36,-73.26 -96.22,-141.17 -194.12,-117.21z"/>
  <path class="fil14" d="M4764.49 4134.11l887.65 3.13c9.61,-11.73 3.11,-1.48 10.36,-18.21 11.23,-25.91 20.07,-63.55 -12.61,-72.02 -6.8,-1.76 -19.56,-1.5 -27.08,-1.48 -19.93,0.07 -39.88,0.28 -59.83,0.29 -230.1,0.01 -607.46,-10.93 -801.16,-0.81 -7.25,27.99 -1.41,63.33 2.67,89.1z"/>
  <path class="fil15" d="M4787.04 6197.4c239.79,9.7 543.49,4.04 793.76,3.73 30.73,-0.03 56.87,9.56 66.05,-13.86 7.74,-19.75 1.51,-63.35 -10.8,-73.27 -18.46,-17.77 -215.38,-7.02 -257.21,-7.15l-487.04 -0.63c-84.86,-0.26 -131.86,-20.15 -104.76,91.18z"/>
  <path class="fil16" d="M5591.83 6423.93l-747.32 -1.44c3.16,21.57 28.05,63.62 39.05,82.01 25.53,42.65 35.69,32.42 91.38,32.22 81.17,-0.3 162.36,-0.13 243.54,-0.4 81.17,-0.25 162.38,-0.69 243.53,-0.78 65.62,-0.08 69.58,8.28 90.93,-25.78 14.81,-23.62 35.82,-59.64 38.89,-85.83z"/>
  <path class="fil17" d="M4778.77 3814.22l865.15 -2.89c2.57,-27.73 -23.16,-63.75 -32.62,-89.65l-743.25 -0.78c-52.03,0.19 -74.95,-16.8 -89.28,93.32z"/>
  <path class="fil15" d="M5592.34 4346.51l-749.38 -1.24c1.58,29.77 24.6,60.17 39.25,81.75 26,38.26 35.02,28.65 92.73,28.47l487.07 0.8c53.43,0.31 64.15,12.77 88.32,-27.75 13.42,-22.49 38.71,-55.87 42.01,-82.03z"/>
  <path class="fil18" d="M4883.84 5882.21c99.34,2.73 622.25,10.14 666.12,1.5 1.66,-25.94 -13.7,-38.7 -25.92,-55 -10.18,-13.56 -25.91,-38.52 -38.28,-48.49l-487.21 0.69c-50.05,0.02 -55.58,-4.94 -79.19,30.25 -19.72,29.41 -41.03,53.53 -35.52,71.05z"/>
  <path class="fil17" d="M4867.73 3568.83l696.73 -0.01 -37.84 -71.11c-21.95,-34.2 -111.29,-22.03 -177.47,-22.03l-432.81 0.03c-29.38,5 -47.72,65.4 -48.61,93.12z"/>
  <path class="fil9" d="M5485.76 8040.75c21.37,-0.05 47.2,6.48 55.98,-9.04 7.89,-13.96 -3.14,-64.22 -8.57,-77.07 -26.02,6.21 -583.46,11.09 -640.09,11.96l1.29 73.16 591.39 0.99z"/>
  <path class="fil19" d="M5495.65 7781.02c-44.17,-10.1 -398.57,-0.55 -496.95,-1.62 -54.08,-0.57 -60.43,-7.66 -71.43,11.07 -4.55,7.75 -16.46,50.99 -15.81,60.69l608.88 -0.57c-1.17,-29.32 -10.68,-49.54 -24.69,-69.57z"/>
  <path class="fil18" d="M5508.08 8145.97l-591.1 -2.51 23.34 69.39c62.23,11.47 375.21,3.65 480.13,4.23 62.35,0.34 94.16,6.54 87.63,-71.11z"/>
  <path class="fil20" d="M5439.04 4589.7l-437.98 -3.51c-0.96,23.35 34.06,55.85 65.08,90.28 33.73,37.45 83.5,22.99 146.39,22.63 45.72,-0.27 121.59,11.45 153.1,-15.53 18.75,-16.05 73.94,-70.76 73.41,-93.87z"/>
  <path class="fil21" d="M4358.04 2348.68c-152.24,52.04 -56.74,258.03 71.88,205.15 38.18,-15.69 92.07,-76.02 70.1,-137.5 -17.34,-48.52 -72.16,-91.5 -141.98,-67.65z"/>
  <path class="fil3" d="M5014.11 6683.4c2.53,38.23 28.92,48.4 46.24,71.95 34.43,46.82 31.01,32.22 140.31,32.47l106.92 0.2c84.51,0.31 50.32,-16.82 110.35,-68.75 16.05,-13.89 18.51,-10.7 18.61,-36.48l-422.43 0.61z"/>
  <path class="fil22" d="M5026.88 5635.08c27.43,12.22 325.46,4.4 374.21,4.2 -1.78,-22.21 -88.93,-108.43 -111.35,-128.99 -19.36,-17.76 -42.34,-10.98 -71.26,-11.12 -95.35,-0.48 -54.05,2.97 -153.03,89.83 -6.99,6.13 -34.44,38.15 -38.57,46.08z"/>
  <path class="fil7" d="M6005.25 2344.05c-140.41,35.87 -85.19,255.15 50.65,208.79 148.86,-50.79 68.89,-239.31 -50.65,-208.79z"/>
  <path class="fil7" d="M4247.25 2908.83c-137.18,47.4 -77.44,247.16 52.39,203.85 131.74,-43.96 67,-245.1 -52.39,-203.85z"/>
  <path class="fil23" d="M6125.62 2905.84c-143.05,35.85 -79.38,233.15 41.51,209.78 45.78,-8.85 89.4,-68.59 79.03,-129.24 -8.73,-51.17 -59.14,-95.94 -120.54,-80.54z"/>
  <path class="fil24" d="M5435.59 7675.37c-6.58,-23.62 -7.36,-18.38 -17.56,-36.5 -2.95,-5.24 -3.97,-8.44 -8.2,-15.37 -7.52,-12.31 0.66,-3.49 -10.58,-13.92 -32.07,-9.68 -191.47,-1.93 -240.17,-1.82 -65.65,0.14 -164.48,-23.67 -170.04,70.62l446.55 -3.01z"/>
  <path class="fil25" d="M5373.32 8307.32c-78.93,0.46 -304.45,-3.18 -353.13,4.57 -8.76,22.09 30.22,64.84 46.52,69.67l234.93 1.43c49.07,0.08 70.03,7.81 95.91,-20.66 31.18,-34.27 35.68,-55.36 -24.23,-55.01z"/>
  <path class="fil7" d="M2883.09 6124.58c-121.99,26.36 -85.47,205.19 35.51,181.4 101.24,-19.92 90.53,-208.62 -35.51,-181.4z"/>
  <path class="fil26" d="M7302.52 3256.57c-110.88,42.4 -47.94,212.82 61.56,170.49 99.85,-38.6 58.29,-216.33 -61.56,-170.49z"/>
  <path class="fil26" d="M7513.52 6128.18c-33.62,10.31 -37.91,8.81 -52.19,39.53 -40.51,87.18 24.67,156.87 98.87,134.21 105.52,-32.24 70.3,-209.62 -46.68,-173.74z"/>
  <path class="fil10" d="M3063.02 3256.79c-110.1,27.98 -64.86,204.83 44.34,172.73 35.25,-10.35 73.99,-59.62 59.74,-108.5 -11.1,-38.09 -51.18,-77.68 -104.08,-64.23z"/>
  <path class="fil27" d="M6633.24 2586.73c-75.93,29.18 -29.44,123.5 34.51,97.09 70.48,-29.09 20.88,-118.39 -34.51,-97.09z"/>
 </g>
</svg>
